<svg id="Layer_1" data-name="Layer 1" xmlns="http://www.w3.org/2000/svg" viewBox="0 0 934.91 332.59"><defs><style>.cls-1{fill:#dd822f;}.cls-2{fill:#56391b;}.cls-3{fill:#593818;}.cls-4{fill:#79674f;}.cls-5{fill:#553b1f;}.cls-6{fill:#563b1f;}.cls-7{fill:#3c2e17;}.cls-8{fill:#f7d99b;}.cls-9{fill:#ad6333;}.cls-10{fill:#a46430;}.cls-11{fill:#f1d59b;}.cls-12{fill:#bea389;}.cls-13{fill:#bda288;}.cls-14{fill:#f6c068;}.cls-15{fill:#f9d899;}.cls-16{fill:#aa612f;}.cls-17{fill:#ac632d;}.cls-18{fill:#a9612f;}.cls-19{fill:#a9632d;}.cls-20{fill:#f9da96;}.cls-21{fill:#f9d998;}</style></defs><title>logo</title><path class="cls-1" d="M466.54,476.68c4-.87,7.94-1.83,12-.42,1.6,5.54-3.36,6.7-6.26,8.93-7.54,5.79-16.93,8.6-24.15,15-4.86,4.34-9.68,8.65-11.95,14.93-2.53,7-.37,9.08,6.9,8.25,11.34-1.29,18.6-9.07,26.67-15.68,10.89.15,16.33-7.51,20.14-15.72,4.59-9.87,10.86-18.46,17-27.26,2-1.46,4.28-2.83,6.35-.64,1.61,1.68.43,3.87-.37,5.71-1.78,4.06-4.27,7.73-6.52,11.54a41.55,41.55,0,0,0-6.15,24.33c.53,8.25,3,10.24,11.1,7.83,9.35-2.78,17-8.37,23.48-15.6,7.77-8.65,13.55-18.7,20.15-28.17,2.69-3.85,4.69-8.39,9.45-10.38,4.29.14,3.88,2.95,3.08,5.72-.94,3.23-3.19,6-3.24,10,10.86-10.84,23-20.06,35.09-29.29,9.1-6.93,19.6-10.77,30-14.76,3.69-1.42,9.2-4.86,12.08,2.1a4.55,4.55,0,0,1-1.28,2.72c-17,12.47-27.3,30-36.44,48.4-3.82,7.7-9.91,13.77-16.43,19.46,24.65-.19,43.09-8.09,65.24-27.86a399.5,399.5,0,0,1,34.06-27.65c4.71-3.36,9.49-6.72,15.66-6.77,8,2.88,3.79,6.36.08,8.94-8.08,5.62-14.68,12.65-20.9,20.23a83.55,83.55,0,0,0,22.55-11.52C724,445,746.5,438.33,770.72,436.45c12.16.28,22.91,5,33.12,10.94,3.94,2.3,8.32,4.91,7.17,10.85-7.26,3.61-13.81-.12-20.56-1.92-11.9-6.12-23.19-3.42-34.1,2.65-8.37,4.65-15.83,10.67-23.12,16.83-9.13,7.72-18.1,15.57-29.62,19.72-2.39.86-5.62,2-5.12,5.44.4,2.68,3.32,3.38,5.58,3.83,22.95,4.57,45.23,4.76,64.68-11a29.58,29.58,0,0,1,13.89-6c15.06,0,28.76-5.27,42.91-9.63,11.66-3.6,24.5-3.38,35,5.57-.68,4-4.08,5.19-7.11,6.65-16.26,7.83-30.56,19.23-47.68,25.9,9.72,1.91,19,4.37,29,2.54,13.69-2.5,27.36-4.41,40.76-8.84,11.38-3.77,23.59-3.25,34,4.9,0,5.34-4.16,4.5-7.25,4.64a113.08,113.08,0,0,0-17.13,1.79c5,3.32,9.23,5.14,13.92,5.34,10.71.44,20.05,5.9,30.33,8,6,1.21,9.09,5.56,9.25,11.78a60.21,60.21,0,0,0,1.1,12.12c-1.47,9.92-5.21,18.24-15.51,21.93-21.37,9.92-44.06,10.14-67.05,10.27-43.4.24-86.59-2.25-129.83-5.74-51.09-4.11-102.21-2.27-153.28,2.49-26.51,2.46-53.22,1.56-79.83.19-17.41-.9-34.42-4.43-51.58-7.33-20.82-3.51-37.23-14.43-53.76-25.92-7.53-11.09-4.66-25,7.39-36.06,17.16-10.14,31.39-24.6,49.7-33.21C452.74,481.92,460,480.2,466.54,476.68Z" transform="translate(-196.18 -297.89)"/><path class="cls-2" d="M925.83,578.64c5.41-5.94,10.36-12.16,12.09-20.3-2.19-8.56.36-17.91-5.38-26.07-2.3-3.26-4.76-6.4-7.11-9.63s-6.12-5.73-4.07-10.55c26.1,15.67,33,40.51,18.3,67-3,5.44-2.81,7.07,3.74,9.36,20.08,7,40.64,7.39,61.45,6.9,3.07-.07,8.35-1.76,8.57,2.68.25,5.06-5.14,2.87-8.08,3a133.06,133.06,0,0,1-19.46,0c-15.29-1.44-29.39,2.91-43.44,8.71,15.59,0,31.17,0,46.76.06,2.47,0,6.54-1.42,6.8,2.34.35,4.89-4.26,3.26-6.88,3.28-17.43.16-34.86.51-52.27,0-58.49-1.64-116.61,6.19-175,6.63-5.42,4.22-11.79,2.54-17.79,2.7-9.2.24-18.41.06-27.61.09q-52.11-.06-104.21,0c-12.05,0-24.1,0-36.15,0-4,0-8.1.18-11.43-2.73-75.4-2.61-150.68-9.05-226.23-6.66-2.7.08-7.52,1.72-7.65-2.51-.16-5.44,5.12-3,7.94-3.08,15-.26,30-.12,45.84-.12-19.42-10.68-39.77-8.34-59.79-8.74-4-.08-11.25,2.63-11.34-2.66-.11-5.7,7.25-3.23,11-2.91,23.83,2,46.58-3,70-10.47-7.54-8.88-13-19.05-14.26-31.24-1.75-17.18,2.44-32.25,14.41-44.86,16.74-17.64,36.39-29.49,61.47-30.24-4.06,7.07-12.09,7.46-18.42,10.46-15.29,7.25-29.13,16.06-38.86,30.31-9.76,8.87-13.27,19.7-10.2,32.6,2.61,3.59,5.29,7.22,7,11.28C402.24,579,414.9,585.49,431,587a57.14,57.14,0,0,0,7.15.5c35.85-1,71.63,1.85,107.45,2.51,55.24,1,110.55,1.87,165.72,4.39,59.84,2.74,119.32-.28,178.89-4.14C903.16,589.42,914.4,583.9,925.83,578.64Z" transform="translate(-196.18 -297.89)"/><path class="cls-3" d="M909.05,515.52c-15-5.35-29.14-4.31-44.67.61-20.52,6.49-45.39,10.21-68.83.61,24.12-8.06,42.41-23.57,64.34-32.32,3.73-3.49.54-4.18-2.06-4.77-12.12-2.78-24.21-5.8-36.83-3.84-5.7.89-10.92.49-12.93-6.32,1.65-3.72,6.19-6.74,2.82-11.68-10.76-12.44-25.24-16.75-40.82-18.67-16.45-1.37-32.89-1.34-49.23,1.26-6.24,1-12.4,2.52-18.72,3-18.45,6.64-31.71,20.67-46,33C636,493.68,614.9,507.74,587,506.63c-1.21-.05-2.42-.17-7.22-.52,19.74-14.41,26.65-34.4,37.55-51.79,5.61-8.95,14.24-15.49,23.29-21.12.31-5.1-3.48-3.16-5.34-2.57-9,2.86-18.47,3.83-27.66,5.89-13,2.93-25.51,6.87-34.32,17.94A17.32,17.32,0,0,1,565,460.1c-9.86,12.95-17.31,27.59-28.15,39.88-6.92,7.86-15.07,13.79-25.08,16.63-10.53,3-14.23-.19-14.87-11.17-.58-10,2.92-18.64,7.82-26.95,2.66-4.52,5.41-9,9.44-15.68l-6.49,3.61c-9.93,10.66-20.7,20.63-27.84,33.59a21.48,21.48,0,0,1-9.24,9.15c-7.23,9.57-16.26,16-28.59,17.36-10.38,1.14-13.23-2.23-9.05-12.06,5.37-12.62,16.12-19.66,27.78-25.53,6.6-3.32,13.39-6.3,17.8-12.67,2-.16,3.91-3.56,5.87,0-4.93,8.71-11.91,15.52-19.65,21.74a115.85,115.85,0,0,0-19,19.62c7.72-3.67,14.4-8.51,19.5-15.45,6.63-9,12.86-18.42,21.33-26,9-8.8,18.43-17,30-22.46,13.45-6.29,27.34-8.36,41.78-4.89,4.13,1,6.84.62,9.91-2.54,13.06-13.43,29.37-20.54,47.62-23.78,23-4.1,46.06-5.51,68.87,1,11.59,3.31,31.51,4.82,43.14,3.15,33.57-4.82,65.6.19,90.38,24.27,11,10.69,21.42,14.16,35.48,15.61,19.18,2,36.06,9.81,45.38,28.53-1,4-4.38,2.85-6.57,2.3-19.78-4.95-36.91.44-52.42,12.79a13.35,13.35,0,0,1-5,2.48,97.06,97.06,0,0,0,15.48-2.34c5.27-1.35,10.43-3.07,15.59-4.8,8.08-2.7,16.32-5.15,24.85-5.19,8.77-.05,17,1.95,21.3,11C912.47,513.7,912.24,515.81,909.05,515.52Z" transform="translate(-196.18 -297.89)"/><path class="cls-4" d="M611.48,622.25l105.63,0c14.87,2,29.89-.84,44.75,1.48q101.6.07,203.19.25c3.75,0,8.18-2,11.28,2.12-2.92,1.46-6.05.82-9.08.82q-303.32,0-606.63,0c-2.72,0-5.47.32-7.53-.26,3.42.75,7.53.29,11.6.29q299.73,0,599.46.07c4.05,0,8.2-.85,12.15.81-2.26,4-6.12,2.21-9.22,2.22q-303.83.13-607.67.07c-2.05,0-4.1,0-6.14-.16-1.87-.13-3.43-1.15-3.33-3.09s1.78-2.81,3.61-2.89c3.07-.13,6.15-.11,9.22-.12l201.87-.14C580.2,621.44,595.92,624.27,611.48,622.25Z" transform="translate(-196.18 -297.89)"/><path class="cls-5" d="M268.52,556.54c-18.37-1.34-37.09-2.66-55.81-4.13-2.2-.17-5.71.37-5.87-2.69-.21-4,3.71-3.15,6.12-3.36a931.77,931.77,0,0,1,99.25-4.06c5.75.09,14,.86,13.87,7.27s-8.39,6.79-14.13,6.89C297.61,556.71,283.26,556.54,268.52,556.54Z" transform="translate(-196.18 -297.89)"/><path class="cls-6" d="M1058.2,556.56c-14.23,0-28.22.1-42.21,0-6.13-.06-15-.22-15.25-6.74-.32-7,8.65-7.38,14.56-7.47a926.22,926.22,0,0,1,98.11,4c2.45.22,6.51-.58,6.35,3.17-.15,3.58-4.2,2.78-6.69,3C1094.72,554,1076.35,555.23,1058.2,556.56Z" transform="translate(-196.18 -297.89)"/><path class="cls-7" d="M976.3,627.87q-136.29.15-272.57.3-169.59.06-339.18,0H352.26c3.41-2.86,5.91-2.14,8.21-2.14q305.37,0,610.74,0c1.7,0,3.41.1,5.12.15A1.11,1.11,0,0,1,976.3,627.87Z" transform="translate(-196.18 -297.89)"/><path class="cls-8" d="M911.32,511.43c-6.79-7.82-15.78-8.61-25.18-7.68-8.52.85-16.62,3.52-24.6,6.48-10.63,3.95-21.49,6.37-34.16,5.25,20.3-14.51,39.14-29.74,65.87-20.68,1.8.61,3.93.23,5.91.32,3.86,5.35,11.24,7,14.05,13.47C914.61,510.89,913.12,511.27,911.32,511.43Z" transform="translate(-196.18 -297.89)"/><path class="cls-9" d="M911.32,511.43l1.89-2.83,8.15,3.49c3.58,8.5,12.62,13,14.92,23.13,1.79,7.91.48,15.49,1.64,23.12-2.88-2.3-2.48-5.63-2-8.52,1.65-10.31-5-11.68-12.78-14.34-14.25-4.87-30.3-4.09-43.78-13.81,9-8.38,20.41-2.42,29.71-6.15C910.88,514.75,911.18,513.14,911.32,511.43Z" transform="translate(-196.18 -297.89)"/><path class="cls-10" d="M398.79,519.38c1.32-12.18,11.75-16.73,19.78-23,11.1-8.67,25-11.85,37.5-17.77l10.47-1.93c-6,6.6-14.85,8.4-22.3,12.45-11.75,6.36-22.18,14.29-32.58,22.48C407.76,514.68,403.11,516.82,398.79,519.38Z" transform="translate(-196.18 -297.89)"/><path class="cls-11" d="M486.56,476.21c-12.65,18-22.26,39-46.32,45.74,11.07-18.7,29.58-30.33,44.16-45.69Z" transform="translate(-196.18 -297.89)"/><path class="cls-12" d="M611.48,622.25c-15.53,3-31.2,1.77-46.84,1.51a2.32,2.32,0,0,0,0-1.66Z" transform="translate(-196.18 -297.89)"/><path class="cls-13" d="M761.86,623.76c-14.94.2-29.92,1.56-44.75-1.48l44.73-.19A2.29,2.29,0,0,0,761.86,623.76Z" transform="translate(-196.18 -297.89)"/><path class="cls-14" d="M925.83,578.64c-11.93,13.65-28.65,15-44.78,16.22-80.08,6.31-160.24,4-240.39,1.43-44.34-1.4-88.71-1.78-133-3.74-28.59-1.26-57.29,1.15-85.81-3.29-18-2.79-30.71-19.88-33.25-37.28,9,5.25,18.35,10.07,27,15.9,7.69,5.18,16.42,5.93,24.91,8.2,42.43,11.38,85.93,11,128.9,8.18,36.24-2.42,72.5-4.76,108.73-5,27.39-.15,54.87,2.52,82.28,5.09,43.13,4,86.5,3,129.76,2.21a62.5,62.5,0,0,0,28.29-7.8C921.1,577.36,923.31,576.38,925.83,578.64Z" transform="translate(-196.18 -297.89)"/><path class="cls-15" d="M810.89,457.81c2.37,2.55,6.41,3.27,8,7.34l-10.18,3.14c-2,3.13-5.37,4.45-8.31,6.36-12.06,6.2-23.22,13.91-34.79,20.92-14.13,8.58-29.93,10.5-45.89,11.76a7.26,7.26,0,0,1-7-3.35c-1.62-2.56-.43-4.84,1.41-6.34,22.57-18.37,43.48-39.62,74.42-43.75a13.87,13.87,0,0,1,2,0Z" transform="translate(-196.18 -297.89)"/><path class="cls-3" d="M790.6,453.85c-1.38.95-2.65,2.48-4.16,2.77-30.38,5.86-50.64,28.08-75.4,46.67a79.5,79.5,0,0,0,38.71-3.81c13.67-4.66,25.56-12.62,37.4-20.7,4.15-2.84,9.1-4.5,13.69-6.7,6.5,3.17,3,6.14-.51,8.35a151.91,151.91,0,0,1-18.21,10.15c-5.36,1.13-10.65,2.2-13.49,7.89-.66,1.31-2.63,2.09-4.14,2.85-21.41,10.7-43.52,12-66.22,4.75-2.22-.71-5-1.38-5.57-4-.64-3.18,2.06-5.37,4.39-6.21,21.76-7.91,36.1-26.54,55.39-37.92C764.43,450.9,776.83,445.26,790.6,453.85Z" transform="translate(-196.18 -297.89)"/><path class="cls-16" d="M702.12,443.43c22.08-10.52,44.81-10.64,68-4.28-29.15,1.38-53.79,14.43-77.56,29.84-5.3,3.44-15,9-16.59,6-3-5.85,6-9.52,10-14,4.69-5.28,9.54-10.61,16.36-13.52C704.74,446.39,706.94,444.57,702.12,443.43Z" transform="translate(-196.18 -297.89)"/><path class="cls-17" d="M565,460.1c12.61-21,33.62-26.24,55.57-28.63,7.91-.86,15.84-3.75,24.12-2-.09,2.86-2.43,2.91-4.1,3.71-5.58-3.55-10.26.22-15.05,2-22.13,8.34-39.69,23.22-56.21,39.58-2.56,2.54-4.51,6.05-9.3,7-1.84-5.8,1.59-10.2,3.44-14.9C564.33,464.71,568.35,463.23,565,460.1Z" transform="translate(-196.18 -297.89)"/><path class="cls-18" d="M782.12,490.58c5.65-4.34,9.78-10.7,17.38-12.46,4-.92,3.21-3.5,1.34-6,2-2.55,4.85-3.41,7.9-3.79,2,3.37,4.4,6.37,8.81,5.34,17.77-4.16,34.11,1.21,50.6,7-.1,2.6-2.27,2-3.42,2.57a27.49,27.49,0,0,1-4.84,1.25c-16.22-7.52-33.19-7-47.84,1.54C801.75,492,791.74,487.43,782.12,490.58Z" transform="translate(-196.18 -297.89)"/><path class="cls-19" d="M470.59,509.16c7.62-12.68,15.67-25,26.3-35.52,3.17-3.13,6.35-6.05,10.77-7.22-8.78,12.48-13.45,27.47-24,38.94C479.94,509.47,476.08,511.73,470.59,509.16Z" transform="translate(-196.18 -297.89)"/><path class="cls-20" d="M601.12,498.68c8.07-9.7,13.09-19,18-28.35,11.88-22.89,31.72-33.7,56.45-37.07,6.6-.9,11.55,2.41,18.06,6.34C661.76,458.74,641.39,492.76,601.12,498.68Z" transform="translate(-196.18 -297.89)"/><path class="cls-21" d="M503.26,512.5C504,486,518.87,469,539.2,456.22c5-3.19,12.41-1.14,19.31.3C545.14,480.36,532.13,503.47,503.26,512.5Z" transform="translate(-196.18 -297.89)"/><path class="cls-2" d="M271.75,372.3q-2.92,13.15-5.73,26.31c-2.81,13-5.09,22.07-6.94,27.16a43,43,0,0,1-8,13.67,34.33,34.33,0,0,1-19.48,11.27c-8.36,1.74-15.68.61-22-3.46S199.07,437,197.21,428.71c-2.48-11.11-.48-21.76,6.16-31.93a50.88,50.88,0,0,1,14.85-14.52,54.86,54.86,0,0,1,19.7-8.31,13.59,13.59,0,0,1,8.31.55,6.6,6.6,0,0,1,4.05,5,6.89,6.89,0,0,1-2.08,6.45c-1.07,1.12-3.32,2.17-6.75,3.18-8,2.33-14.24,5.49-18.67,9.42a27.86,27.86,0,0,0-7.88,11.54,23.42,23.42,0,0,0-1,13.05q1.41,6.58,5.72,9.71a12.23,12.23,0,0,0,10.16,1.91q7.37-1.53,11.52-8.73c2.77-4.8,5.29-12.84,7.63-24.12q5.65-27.43,11.86-54.86L254,348.32c-5.79,1.09-9-.25-9.78-4.05A7.44,7.44,0,0,1,246,337.4c1.76-1.87,4.5-3.17,8.21-3.86q12.06-2.27,24.14-4.39c8.11-1.43,14.36-1,18.7,1.23s7,6.38,8,12.39a22.3,22.3,0,0,1-5.9,19.47c-3.71,4.11-10,6.93-18.93,8.52ZM275.21,357l5.08-.91c6.67-1.18,9.57-4.33,8.68-9.51-.51-2.94-2.68-4.09-6.5-3.42l-4.22.75Q276.72,350.41,275.21,357Z" transform="translate(-196.18 -297.89)"/><path class="cls-2" d="M345.3,388.62l6.78-1q7.77-1.14,8.52,4.15a6.86,6.86,0,0,1-2,6.12,12.66,12.66,0,0,1-7.29,3.18q-3.93.57-7.84,1.17-5.26.79-7.78-2.92-4,4.73-8.25,5.41l-7,1.12a14,14,0,0,1-11.63-2.9q-4.92-4-6.22-11.57a29.89,29.89,0,0,1,4.75-21.89c4.49-6.95,10.25-11,17.22-12.07,5.33-.84,9.51.34,12.5,3.52a9.59,9.59,0,0,1,7.51-5.71,6.6,6.6,0,0,1,4.85,1,5.44,5.44,0,0,1,2.44,3.87,10.72,10.72,0,0,1-.42,4.16l-.45,1.72Q348.15,377.29,345.3,388.62ZM323,392.38l1.54-.24q5-.81,6.08-5.07,1.35-5.52,2.72-11a9.16,9.16,0,0,0,.34-3.54,3.47,3.47,0,0,0-2.08-2.56,6.57,6.57,0,0,0-4.13-.58q-4.55.7-8,6.48t-2.57,11.21Q317.9,393.22,323,392.38Z" transform="translate(-196.18 -297.89)"/><path class="cls-2" d="M407.92,380.19l7.42-.88q7.85-.9,8.45,4.46a6.73,6.73,0,0,1-2.12,6c-1.69,1.58-4.15,2.55-7.39,2.93q-6.42.75-12.83,1.54a9.3,9.3,0,0,1-6.57-1.43,7.19,7.19,0,0,1-3.27-5.26,17.9,17.9,0,0,1,.95-6.35q1.89-6.9,3.81-13.79a10.43,10.43,0,0,0,.52-3.42,2.92,2.92,0,0,0-1.52-2.31,5.12,5.12,0,0,0-3.4-.61c-4.28.54-7.34,4.09-9.13,10.64q-2.52,9.18-5,18.37c-1.47,5.58-4.33,8.65-8.62,9.25a6.81,6.81,0,0,1-4.69-.93,4.93,4.93,0,0,1-2.39-3.58,10.91,10.91,0,0,1,.42-4.16L363,389q4.1-15.81,8.39-31.61c1.1-4.1,3.62-6.42,7.55-6.93a7.17,7.17,0,0,1,7.42,3.19q6.06-5.79,12.16-6.53a14.54,14.54,0,0,1,10.11,2.08,10.43,10.43,0,0,1,4.78,7.8,16.14,16.14,0,0,1-.67,6.23Q410.33,371.7,407.92,380.19Z" transform="translate(-196.18 -297.89)"/><path class="cls-2" d="M467.74,373.88l6.81-.62c5.2-.45,8,1.1,8.25,4.64a6.83,6.83,0,0,1-2.28,6c-1.73,1.55-4.22,2.46-7.46,2.75l-7.88.72q-5.28.5-7.58-3.36c-2.83,3-5.66,4.63-8.53,4.92l-7,.72a14,14,0,0,1-11.43-3.56c-3.12-2.85-5-6.81-5.53-11.91a29.93,29.93,0,0,1,6-21.58c4.87-6.68,10.84-10.37,17.84-11.06q8.06-.8,12.26,4.24A9.6,9.6,0,0,1,469,340.5a6.64,6.64,0,0,1,4.77,1.28,5.42,5.42,0,0,1,2.21,4,10.66,10.66,0,0,1-.65,4.13c-.18.57-.37,1.13-.55,1.69Q471.21,362.73,467.74,373.88Zm-22.44,2.47,1.55-.16q5.07-.51,6.34-4.71,1.67-5.43,3.34-10.85a9.4,9.4,0,0,0,.55-3.52,3.51,3.51,0,0,0-1.93-2.67,6.58,6.58,0,0,0-4.09-.82q-4.56.45-8.35,6t-3.19,11.05Q440.17,376.88,445.3,376.35Z" transform="translate(-196.18 -297.89)"/><path class="cls-2" d="M527.3,369.27l7.07-.44c5.25-.31,8,1.34,8.18,4.92a6.75,6.75,0,0,1-2.45,5.9,12.72,12.72,0,0,1-7.53,2.52l-8.32.52A7.56,7.56,0,0,1,517,379.3q-3.69,4.13-8.18,4.46l-7.82.58a14.07,14.07,0,0,1-11.31-3.73c-3-2.83-4.7-6.78-5.12-11.85a30.63,30.63,0,0,1,6.5-21.61c5-6.64,11-10.21,17.86-10.7a15.14,15.14,0,0,1,12.5,4.43q5.93-17,12.07-33.94,3.15-8.67,9.69-9a6.91,6.91,0,0,1,4.77,1.42,5.18,5.18,0,0,1,2.13,4,11.44,11.44,0,0,1-.74,4.28c-.23.56-.46,1.12-.68,1.68Q537.62,339.2,527.3,369.27Zm-22.68,1.86L507,371q4.27-.31,5.41-3.73,1.93-5.76,3.89-11.5a8.92,8.92,0,0,0,.66-3.2,3.84,3.84,0,0,0-1.8-3,6.22,6.22,0,0,0-4.07-1c-3.25.23-6.17,2.2-8.72,5.92A17.76,17.76,0,0,0,499,366.15Q499.42,371.52,504.62,371.13Z" transform="translate(-196.18 -297.89)"/><path class="cls-2" d="M559.4,362.92q.23,4.54,7.23,4.21,9.23-.4,18.44-.75c5.22-.19,7.88,1.53,8,5.12a6.77,6.77,0,0,1-2.56,5.84c-1.79,1.44-4.32,2.21-7.61,2.33q-8.73.33-17.46.73-9.75.45-15.08-4t-5.86-13.51a27.84,27.84,0,0,1,7.08-20.58A26,26,0,0,1,570.72,333c5.5-.24,10,1,13.42,3.62a13.47,13.47,0,0,1,5.38,10.75q.27,8.18-6.44,12.35-3.72,2.38-11.24,2.69Q565.62,362.63,559.4,362.92Zm2.47-11.15,6.88-.31q6.69-.29,6.38-3.12-.32-3.19-4.45-3C566.83,345.48,563.89,347.64,561.87,351.77Z" transform="translate(-196.18 -297.89)"/><path class="cls-2" d="M610.29,345.74c-.67,1.71-1.33,3.43-2,5.14q-2.7,6.86-7.31,7a6.83,6.83,0,0,1-4.72-1.49,5.17,5.17,0,0,1-2-4,14.71,14.71,0,0,1,1.22-4.76q3.28-8.55,6.61-17.1,2.42-6.19,7.17-6.31c3.12-.08,5.07,1.3,5.85,4.11.18.62.37,1.24.55,1.86a2.59,2.59,0,0,0,1.17,1.79,11.24,11.24,0,0,0,3.73.29q7.38-.15,14.76-.24c5.51-.07,8.28,1.77,8.31,5.48,0,5.13-3.4,7.72-10.33,7.81l-.68.62c-6.56,6.23-9.76,11-9.7,14.39s2,5,5.81,4.93c2.6-.05,5.21-.08,7.82-.12,5.26-.06,7.91,1.7,7.94,5.25a6.86,6.86,0,0,1-2.7,5.84c-1.82,1.39-4.37,2.1-7.67,2.15q-6,.08-12.09.2a13.34,13.34,0,0,1-10.2-4,15.22,15.22,0,0,1-4.2-10.74,17.23,17.23,0,0,1,1.9-8.29,50,50,0,0,1,7.28-10Z" transform="translate(-196.18 -297.89)"/><path class="cls-2" d="M664.44,365h7q7.83,0,7.79,5.44a6.79,6.79,0,0,1-2.79,5.73c-1.85,1.36-4.41,2-7.7,2h-9.82q-5.43,0-8.56-2.14a6.89,6.89,0,0,1-3.17-5.92,13.64,13.64,0,0,1,1.27-5.09q5-12.33,10.2-24.64c.22-.56.45-1.13.68-1.69,1.92-4.57,5-6.85,9.33-6.84a6.63,6.63,0,0,1,4.56,1.71,5.21,5.21,0,0,1,1.9,4.07,17.3,17.3,0,0,1-1.73,5.92Q668.89,354.24,664.44,365Zm18.68-45.64-7.84,5.82a8.49,8.49,0,0,1-4.81,2.1,4.29,4.29,0,0,1-3-1.25,3.83,3.83,0,0,1-1.33-2.88,3.24,3.24,0,0,1,.26-1.27c.17-.4.34-.81.5-1.21l2.43-6.05a5.86,5.86,0,0,1,5.93-4l3.7,0c4.29,0,6.42,1.65,6.38,4.84A4.77,4.77,0,0,1,683.12,319.32Z" transform="translate(-196.18 -297.89)"/><path class="cls-2" d="M724.07,365.82l6.83.2q7.83.25,7.63,5.59a6.82,6.82,0,0,1-3,5.68q-2.85,2-7.72,1.84l-7.9-.22c-3.54-.09-5.91-1.5-7.13-4.24q-4.72,4-9,3.87l-7-.12a14,14,0,0,1-10.91-4.9q-4.12-4.78-4.07-12.48a30,30,0,0,1,8.51-20.72c5.62-6,12-9,19-8.85,5.38.11,9.27,2,11.65,5.66a9.6,9.6,0,0,1,8.38-4.3,6.57,6.57,0,0,1,4.58,1.84,5.42,5.42,0,0,1,1.72,4.24,10.77,10.77,0,0,1-1.14,4c-.25.53-.49,1.07-.74,1.61Q728.85,355.16,724.07,365.82Zm-22.55-.22,1.55,0c3.4.06,5.68-1.24,6.86-3.92q2.3-5.19,4.6-10.38a9.11,9.11,0,0,0,1-3.43A3.48,3.48,0,0,0,713.9,345a6.51,6.51,0,0,0-4-1.3c-3.05-.07-6.06,1.59-9,5a16.39,16.39,0,0,0-4.48,10.59C696.4,363.44,698.08,365.54,701.52,365.6Z" transform="translate(-196.18 -297.89)"/><path class="cls-2" d="M852,345q-6.29,11.91-12.45,23.86c-6.13,11.81-10.71,19.94-13.82,24.36a43.08,43.08,0,0,1-11.31,11.06A34,34,0,0,1,792.74,410c-8.48-.52-15.2-3.55-20.22-9.15s-7.35-12.63-6.95-21.14c.54-11.37,5.27-21.12,14.32-29.17A50.7,50.7,0,0,1,798,340.45a54.5,54.5,0,0,1,21.1-2.81,13.53,13.53,0,0,1,7.84,2.73,6.62,6.62,0,0,1,2.58,5.87,6.89,6.89,0,0,1-3.71,5.67c-1.31.8-3.75,1.22-7.32,1.29-8.3.13-15.11,1.53-20.41,4.15a27.89,27.89,0,0,0-10.6,9,23.5,23.5,0,0,0-4.36,12.34q-.37,6.7,2.93,10.87a12.15,12.15,0,0,0,9.24,4.53c5,.31,9.43-1.48,13.36-5.38s8.47-11,13.68-21.25q12.69-25,25.87-49.77l-6.92-.57c-5.85-.47-8.62-2.62-8.33-6.49a7.46,7.46,0,0,1,3.59-6.13q3.29-2,8.91-1.56,12.18,1,24.36,2.14c8.18.77,14.08,2.83,17.67,6.14s5.06,8,4.43,14.06c-.77,7.39-4.4,13.11-10.82,17.22-4.66,3-11.46,4-20.45,3.21Zm7.38-13.88,5.12.46c6.73.63,10.35-1.65,10.86-6.88.29-3-1.5-4.65-5.35-5l-4.25-.4Q862.55,325.19,859.38,331.11Z" transform="translate(-196.18 -297.89)"/><path class="cls-2" d="M891.57,372.55q-.48,4.51,6.51,5.27,9.18,1,18.36,2.1c5.19.61,7.57,2.72,7.13,6.28a6.79,6.79,0,0,1-3.43,5.38q-3,1.71-7.9,1.13-8.68-1-17.38-2c-6.48-.71-11.24-2.78-14.31-6.26s-4.32-8.23-3.72-14.26A27.89,27.89,0,0,1,887,351a26.07,26.07,0,0,1,20.38-6.33q8.24.93,12.73,5.65a13.47,13.47,0,0,1,3.67,11.44q-1,8.13-8.28,11.21c-2.69,1.19-6.54,1.49-11.53.93Q897.78,373.21,891.57,372.55Zm4.16-10.64q3.43.36,6.85.75c4.44.49,6.71-.2,6.8-2.1q.18-3.21-3.94-3.68Q899.7,356.24,895.73,361.91Z" transform="translate(-196.18 -297.89)"/><path class="cls-2" d="M969,386.8l7,1c5.22.77,7.55,2.95,7,6.5a6.76,6.76,0,0,1-3.62,5.27c-2,1.09-4.67,1.39-7.9.92l-8.27-1.19a7.57,7.57,0,0,1-6.45-4.82q-4.47,3.3-8.93,2.69l-7.79-1a14.1,14.1,0,0,1-10.32-6q-3.51-5.07-2.59-12.65a30.67,30.67,0,0,1,10.79-19.83c6.26-5.47,12.85-7.74,19.7-6.81a15.19,15.19,0,0,1,11.35,6.9q9.3-15.42,18.79-30.75c3.24-5.23,7-7.52,11.36-6.86a7,7,0,0,1,4.39,2.36,5.2,5.2,0,0,1,1.27,4.34,11.53,11.53,0,0,1-1.6,4c-.34.5-.68,1-1,1.49Q985.25,359.51,969,386.8ZM946.35,384l2.34.31c2.84.38,4.86-.46,6.07-2.54q3.07-5.24,6.17-10.46a8.83,8.83,0,0,0,1.31-3,3.82,3.82,0,0,0-1.17-3.28,6.2,6.2,0,0,0-3.78-1.81q-4.86-.66-9.76,4A17.76,17.76,0,0,0,941.86,378C941.4,381.52,942.9,383.52,946.35,384Z" transform="translate(-196.18 -297.89)"/><path class="cls-2" d="M1004.79,372.14l-2.91,4.69q-3.9,6.26-8.47,5.54A6.89,6.89,0,0,1,989,380a5.19,5.19,0,0,1-1.25-4.29,14.72,14.72,0,0,1,2.08-4.47q4.78-7.81,9.62-15.61c2.33-3.76,5.08-5.4,8.21-4.9s4.78,2.2,5,5.1c.07.65.14,1.29.2,1.94a2.62,2.62,0,0,0,.84,2,11.31,11.31,0,0,0,3.62,1c4.87.81,9.74,1.62,14.61,2.46,5.45.93,7.85,3.24,7.21,6.9-.89,5-4.76,7-11.62,5.8l-.79.48c-7.6,4.93-11.63,9.08-12.18,12.39s1.07,5.27,4.84,5.9l7.74,1.31q7.8,1.35,6.88,6.61a6.86,6.86,0,0,1-3.72,5.25c-2,1-4.7,1.27-8,.72q-6-1-12-2a13.35,13.35,0,0,1-9.34-5.75,15.22,15.22,0,0,1-2.2-11.32,17.26,17.26,0,0,1,3.39-7.81,49.7,49.7,0,0,1,9-8.49Z" transform="translate(-196.18 -297.89)"/><path class="cls-2" d="M1054.74,400.9l6.93,1.3c5.15,1,7.39,3.24,6.71,6.76a6.79,6.79,0,0,1-3.8,5.13c-2.07,1-4.73,1.2-8,.59l-9.7-1.79q-5.36-1-8.06-3.67a6.88,6.88,0,0,1-2-6.4A13.68,13.68,0,0,1,1039,398q7.21-11.21,14.54-22.36l1-1.54q4.08-6.21,10.45-5a6.76,6.76,0,0,1,4.2,2.52,5.23,5.23,0,0,1,1.14,4.34,17.53,17.53,0,0,1-2.79,5.51Q1061.08,391.18,1054.74,400.9Zm26.74-41.46q-4.41,2.13-8.8,4.29-3.15,1.56-5.14,1.18a4.32,4.32,0,0,1-2.76-1.78,3.83,3.83,0,0,1-.79-3.07,3.16,3.16,0,0,1,.48-1.2l.73-1.1,3.49-5.51a5.87,5.87,0,0,1,6.58-2.82l3.65.69q6.35,1.23,5.43,5.93A4.82,4.82,0,0,1,1081.48,359.44Z" transform="translate(-196.18 -297.89)"/><path class="cls-2" d="M1117.05,413.4l7.32,1.6c5.17,1.13,7.36,3.47,6.57,7a6.74,6.74,0,0,1-4,5c-2.12.94-4.78,1-8,.35q-6.35-1.38-12.68-2.73a9.38,9.38,0,0,1-5.77-3.5,7.15,7.15,0,0,1-1.38-6,17.9,17.9,0,0,1,3-5.69q4-5.91,8.11-11.79a10.59,10.59,0,0,0,1.61-3.06,2.93,2.93,0,0,0-.69-2.69,5.15,5.15,0,0,0-3-1.69q-6.36-1.32-12.13,7.08-5.38,7.86-10.71,15.75-4.82,7.18-11.19,5.93a6.82,6.82,0,0,1-4.14-2.41,4.9,4.9,0,0,1-1.09-4.16,10.56,10.56,0,0,1,1.75-3.8l1-1.47q9-13.6,18.26-27.15,3.57-5.27,9.42-4.09a7.19,7.19,0,0,1,6,5.44q7.63-3.5,13.68-2.2a14.6,14.6,0,0,1,8.91,5.27,10.39,10.39,0,0,1,2,8.93,16.12,16.12,0,0,1-2.67,5.68Q1122.09,406.16,1117.05,413.4Z" transform="translate(-196.18 -297.89)"/></svg>